<?xml version="1.0" encoding="UTF-8"?>
<svg width="80px" height="80px" viewBox="0 0 80 80" version="1.1" xmlns="http://www.w3.org/2000/svg" xmlns:xlink="http://www.w3.org/1999/xlink">
    <!-- Generator: Sketch 55.1 (78136) - https://sketchapp.com -->
    <title>android</title>
    <desc>Created with Sketch.</desc>
    <g id="android" stroke="none" stroke-width="1" fill="none" fill-rule="evenodd">
        <rect id="Rectangle" fill="#F5FAEE" x="0" y="0" width="80" height="80" rx="26"></rect>
        <path d="M48.5542535,43.9722979 C47.7488382,43.9722979 47.0959201,43.311309 47.0959201,42.495938 C47.0959201,41.680567 47.7488382,41.0195782 48.5542535,41.0195782 C49.3596687,41.0195782 50.0125868,41.680567 50.0125868,42.495938 C50.0125868,43.311309 49.3596687,43.9722979 48.5542535,43.9722979 M32.4457465,43.9722979 C31.6403313,43.9722979 30.9874132,43.311309 30.9874132,42.495938 C30.9874132,41.680567 31.6403313,41.0195782 32.4457465,41.0195782 C33.2511618,41.0195782 33.9040799,41.680567 33.9040799,42.495938 C33.9040799,43.311309 33.2511618,43.9722979 32.4457465,43.9722979 M49.0768229,35.0846117 L51.9898437,29.9788672 C52.1161532,29.7883017 52.1271778,29.542402 52.0184402,29.3410363 C51.9097025,29.1396706 51.6992847,29.0163244 51.4726447,29.0209595 C51.2460047,29.0258615 51.0408309,29.1579517 50.9404514,29.3637173 L50.9404514,29.3637173 L47.9909722,34.5352828 C43.2256591,32.3716084 37.7743409,32.3716084 33.0090278,34.5352828 L30.0595486,29.3637173 C29.9591691,29.1579517 29.7539953,29.0258615 29.5273553,29.0209595 C29.3007153,29.0163244 29.0902975,29.1396706 28.9815598,29.3410363 C28.8728222,29.542402 28.8838468,29.7883017 29.0101563,29.9788672 L29.0101563,29.9788672 L31.9231771,35.0846117 C26.9210938,37.8386379 23.5006944,42.9646823 23,49.0208333 L58,49.0208333 C57.4993056,42.9646823 54.0782986,37.8386379 49.0768229,35.0846117" id="Shape" fill="#8DCA38" fill-rule="nonzero"></path>
    </g>
</svg>