<?xml version="1.0" encoding="UTF-8"?>
<svg width="80px" height="80px" viewBox="0 0 80 80" version="1.1" xmlns="http://www.w3.org/2000/svg" xmlns:xlink="http://www.w3.org/1999/xlink">
    <!-- Generator: Sketch 55.1 (78136) - https://sketchapp.com -->
    <title>react</title>
    <desc>Created with Sketch.</desc>
    <g id="react" stroke="none" stroke-width="1" fill="none" fill-rule="evenodd">
        <rect id="Rectangle" fill="#EBF9FF" x="0" y="0" width="80" height="80" rx="26"></rect>
        <path d="M49.5039062,35.4256101 C49.1875,35.3211514 48.8710938,35.2224959 48.5546875,35.1296437 C48.6074219,34.9149231 48.6542969,34.7002024 48.7011719,34.4854817 C49.421875,31.0267378 48.9472656,28.2469755 47.3476562,27.3300602 C45.8066406,26.4537677 43.2929688,27.3648798 40.75,29.5585126 C40.4980469,29.7732333 40.2519531,29.9995605 40.0175781,30.2258877 C39.859375,30.0750029 39.6953125,29.9241181 39.53125,29.7790366 C36.8652344,27.4345189 34.1933594,26.4479644 32.59375,27.370683 C31.0585937,28.2527788 30.6015625,30.8700498 31.2460937,34.1430893 C31.3105469,34.4680719 31.3808594,34.7872513 31.4628906,35.112234 C31.0878906,35.2166927 30.71875,35.3327579 30.3730469,35.4546264 C27.2441406,36.5282298 25,38.2227821 25,39.9753671 C25,41.7859847 27.390625,43.6024056 30.6425781,44.7050253 C30.90625,44.7920742 31.1699219,44.8791232 31.4394531,44.9545656 C31.3515625,45.3027613 31.2753906,45.6451537 31.2050781,45.9991526 C30.5898438,49.2199628 31.0703125,51.7733979 32.6054688,52.6496904 C34.1875,53.5549992 36.8476562,52.6264773 39.4375,50.3806151 C39.6425781,50.200714 39.8476562,50.0150096 40.0527344,49.8176987 C40.3105469,50.067239 40.5800781,50.3051727 40.8496094,50.5373032 C43.3574219,52.6729034 45.8359375,53.5375894 47.3652344,52.6612969 C48.9472656,51.7559881 49.4628906,49.0110454 48.7949219,45.6683667 C48.7421875,45.4130232 48.6835938,45.1518765 48.6191406,44.8849264 C48.8066406,44.8326971 48.9882812,44.7746645 49.1699219,44.7166318 C52.5507812,43.6082089 55,41.8150011 55,39.9753671 C55,38.2169789 52.6914062,36.51082 49.5039062,35.4256101 Z M41.5761719,30.498641 C43.7558594,28.6183843 45.7890625,27.8813701 46.7148438,28.4094669 C47.7050781,28.9723832 48.0859375,31.2472618 47.4648438,34.2359415 C47.4238281,34.4332524 47.3828125,34.62476 47.3300781,34.8162676 C46.0292969,34.5261045 44.7109375,34.3171871 43.3867187,34.2011219 C42.625,33.1217152 41.7929687,32.0887347 40.890625,31.11959 C41.1191406,30.9048693 41.3417969,30.7017552 41.5761719,30.498641 L41.5761719,30.498641 Z M34.796875,42.9872599 C35.0957031,43.4921436 35.4003906,43.9970274 35.7226562,44.4903046 C34.8085938,44.3916492 33.9003906,44.2465676 33.0039062,44.05506 C33.2617187,43.2193904 33.5839844,42.3547044 33.9589844,41.4726086 C34.2285156,41.9832956 34.5039062,42.4881794 34.796875,42.9872599 L34.796875,42.9872599 Z M33.0214844,36.0059362 C33.8652344,35.8202319 34.7617188,35.6693471 35.6933594,35.5532818 C35.3828125,36.0349525 35.078125,36.5282298 34.7910156,37.0273103 C34.5039062,37.5205875 34.2226562,38.0254713 33.9589844,38.5361583 C33.5898438,37.6714723 33.2792969,36.8241961 33.0214844,36.0059362 Z M34.6269531,40.0043834 C35.0136719,39.2035334 35.4355469,38.420093 35.8808594,37.6482593 C36.3261719,36.8764255 36.8066406,36.1278047 37.3105469,35.3907905 C38.1894531,35.3269546 39.0859375,35.2921351 40,35.2921351 C40.9140625,35.2921351 41.8164062,35.3269546 42.6894531,35.3907905 C43.1875,36.1220015 43.6621094,36.8706222 44.1132812,37.6366527 C44.5644531,38.4026833 44.9863281,39.1861236 45.3847656,39.9811704 C44.9921875,40.7820205 44.5703125,41.5712641 44.1191406,42.3489011 C43.6738281,43.1207349 43.1992187,43.8693556 42.7011719,44.6121731 C41.828125,44.676009 40.9199219,44.7050253 40,44.7050253 C39.0800781,44.7050253 38.1894531,44.676009 37.328125,44.6237796 C36.8183594,43.8867654 36.3378906,43.1323414 35.8867188,42.3605076 C35.4355469,41.5886739 35.0195312,40.8052335 34.6269531,40.0043834 Z M45.2089844,42.9756534 C45.5078125,42.4649663 45.7890625,41.9484761 46.0644531,41.4261825 C46.4394531,42.2676555 46.7675781,43.1207349 47.0546875,43.9970274 C46.1464844,44.2001416 45.2265625,44.3568296 44.3007812,44.4612883 C44.6171875,43.9738144 44.9160156,43.4747339 45.2089844,42.9756534 Z M46.0527344,38.5361583 C45.7773438,38.0254713 45.4960938,37.5147842 45.203125,37.0157037 C44.9160156,36.5224265 44.6171875,36.0349525 44.3066406,35.5532818 C45.25,35.6693471 46.1523438,35.8260351 46.9960937,36.0175428 C46.7265625,36.8764255 46.4101562,37.7120951 46.0527344,38.5361583 L46.0527344,38.5361583 Z M40.0117188,32.007489 C40.6269531,32.6690608 41.2070312,33.3654522 41.7460938,34.0850567 C40.5859375,34.0328273 39.4199219,34.0328273 38.2597656,34.0850567 C38.8339844,33.3364359 39.4257812,32.6400445 40.0117188,32.007489 Z M33.2148438,28.4500897 C34.1992188,27.8813701 36.3847656,28.6938267 38.6875,30.7133617 C38.8339844,30.8410334 38.9804688,30.9803117 39.1328125,31.11959 C38.2246094,32.0887347 37.3867188,33.1217152 36.6191406,34.2011219 C35.2949219,34.3171871 33.9824219,34.5203013 32.6816406,34.8046611 C32.6054688,34.5086948 32.5410156,34.2069252 32.4765625,33.9051556 C31.9257812,31.096377 32.2890625,28.9781865 33.2148438,28.4500897 L33.2148438,28.4500897 Z M31.7792969,43.7474872 C31.5332031,43.677848 31.2929688,43.6024056 31.0527344,43.52116 C29.8046875,43.1323414 28.3867187,42.5171957 27.3613281,41.7105423 C26.7695312,41.304314 26.3710938,40.6775618 26.2597656,39.9753671 C26.2597656,38.9133703 28.1113281,37.5554071 30.7832031,36.6326885 C31.1171875,36.5166233 31.4570312,36.4121645 31.796875,36.3135091 C32.1953125,37.5728169 32.6757812,38.8089116 33.2324219,40.0043834 C32.6699219,41.2172651 32.1835938,42.4707696 31.7792969,43.7474872 L31.7792969,43.7474872 Z M38.6113281,49.4346835 C37.6445312,50.310976 36.5253906,51.0073674 35.3066406,51.4832348 C34.65625,51.7908077 33.90625,51.819824 33.2382812,51.5586772 C32.3066406,51.0247771 31.9199219,48.9762258 32.4472656,46.2196766 C32.5117187,45.8946939 32.5820312,45.5697113 32.6640625,45.2505319 C33.9765625,45.5290885 35.3007812,45.7205961 36.6425781,45.8192515 C37.4160156,46.9044614 38.265625,47.9432453 39.1738281,48.9181932 C38.9863281,49.0980943 38.7988281,49.2721922 38.6113281,49.4346835 Z M40.046875,48.0244909 C39.4492188,47.3861322 38.8515625,46.6781342 38.2714844,45.917907 C38.8339844,45.94112 39.4140625,45.9527265 40,45.9527265 C40.6035156,45.9527265 41.1953125,45.94112 41.78125,45.9121037 C41.2421875,46.6491179 40.6621094,47.3513126 40.046875,48.0244909 L40.046875,48.0244909 Z M47.7050781,49.7654694 C47.6523437,50.4734673 47.3007812,51.1350391 46.7382812,51.5818903 C45.8066406,52.1157903 43.8203125,51.4193989 41.6757812,49.5971748 C41.4296875,49.3882574 41.1835938,49.1619302 40.9316406,48.9297997 C41.828125,47.9490485 42.6542969,46.9102647 43.4042969,45.8192515 C44.7460937,45.7089896 46.0820312,45.5058754 47.4003906,45.2099091 C47.4589844,45.4478428 47.5117187,45.6857765 47.5585937,45.917907 C47.8457031,47.1714115 47.8925781,48.4771453 47.7050781,49.7654694 L47.7050781,49.7654694 Z M48.7714844,43.5269632 C48.6074219,43.5791926 48.4433594,43.6314219 48.2734375,43.677848 C47.8632812,42.412737 47.359375,41.1766423 46.7792969,39.9753671 C47.3417969,38.7915018 47.8164062,37.5728169 48.2148437,36.3251156 C48.5195312,36.4121645 48.8125,36.5050167 49.09375,36.5978689 C51.8242188,37.5263908 53.7402344,38.907567 53.7402344,39.9637606 C53.7402344,41.1011999 51.6953125,42.5694251 48.7714844,43.5269632 Z M40,42.656474 C41.4824219,42.656474 42.6835937,41.4668054 42.6835937,39.9985802 C42.6835937,38.530355 41.4824219,37.3406864 40,37.3406864 C38.5175781,37.3406864 37.3164062,38.530355 37.3164062,39.9985802 C37.3164062,41.4668054 38.5175781,42.656474 40,42.656474 Z" id="Shape" fill="#2BC1DC" fill-rule="nonzero"></path>
    </g>
</svg>