<?xml version="1.0" encoding="UTF-8"?>
<svg width="80px" height="80px" viewBox="0 0 80 80" version="1.1" xmlns="http://www.w3.org/2000/svg" xmlns:xlink="http://www.w3.org/1999/xlink">
    <!-- Generator: Sketch 55.1 (78136) - https://sketchapp.com -->
    <title>apple</title>
    <desc>Created with Sketch.</desc>
    <g id="apple" stroke="none" stroke-width="1" fill="none" fill-rule="evenodd">
        <rect id="Rectangle" fill="#F5F4FE" x="0" y="0" width="80" height="80" rx="26"></rect>
        <path d="M47.3937301,40.2679967 C47.3820404,38.055764 48.3522848,36.3860407 50.316153,35.1563527 C49.217322,33.5348525 47.5573858,32.642726 45.3655685,32.4679174 C43.2906482,32.2991367 41.022848,33.715689 40.1928799,33.715689 C39.316153,33.715689 37.305526,32.5281962 35.7274176,32.5281962 C32.4659936,32.5824471 29,35.2106037 29,40.557335 C29,42.1366401 29.2805526,43.7681868 29.8416578,45.4519752 C30.5897981,47.6642079 33.2901169,53.0893017 36.1073326,52.9988834 C37.5802338,52.9627162 38.6206164,51.9198926 40.5377258,51.9198926 C42.3963868,51.9198926 43.3607864,52.9988834 45.0031881,52.9988834 C47.8437832,52.9566883 50.2869288,48.0258808 51,45.8076202 C47.1891605,43.9570605 47.3937301,40.3825264 47.3937301,40.2679967 Z M44.0855473,30.3702144 C45.6811902,28.4171807 45.5350691,26.6389555 45.4883103,26 C44.0797024,26.0843903 42.4489904,26.9885726 41.5196599,28.1037308 C40.4968119,29.2972515 39.8947928,30.7740825 40.0233794,32.437778 C41.5488842,32.5583356 42.9399575,31.7505994 44.0855473,30.3702144 Z" id="Shape" fill="#524DE9" fill-rule="nonzero"></path>
    </g>
</svg>