<?xml version="1.0" encoding="UTF-8"?>
<svg width="80px" height="80px" viewBox="0 0 80 80" version="1.1" xmlns="http://www.w3.org/2000/svg" xmlns:xlink="http://www.w3.org/1999/xlink">
    <!-- Generator: Sketch 55.1 (78136) - https://sketchapp.com -->
    <title>java</title>
    <desc>Created with Sketch.</desc>
    <g id="java" stroke="none" stroke-width="1" fill="none" fill-rule="evenodd">
        <rect id="Rectangle" fill="#FFF5F6" x="0" y="0" width="80" height="80" rx="26"></rect>
        <path d="M45.1251462,43.2982456 C45.6982456,42.9064327 46.4935673,42.5672515 46.4935673,42.5672515 C46.4935673,42.5672515 44.2304094,42.9766082 41.9789474,43.1637427 C39.2245614,43.3918129 36.2654971,43.4385965 34.780117,43.2397661 C31.2654971,42.7719298 36.7099415,41.4795322 36.7099415,41.4795322 C36.7099415,41.4795322 34.5988304,41.3391813 31.9964912,42.5906433 C28.9263158,44.0760234 39.5988304,44.754386 45.1251462,43.2982456 Z M40.1309942,41.4210526 C39.019883,38.9239766 35.271345,36.7309942 40.1309942,32.8947368 C46.1929825,28.1111111 43.0842105,25 43.0842105,25 C44.3415205,29.9415205 38.6631579,31.4385965 36.6105263,34.5087719 C35.2128655,36.6081871 37.2947368,38.8596491 40.1309942,41.4210526 L40.1309942,41.4210526 Z M46.832751,31.1169591 C46.8385965,31.1169591 36.5871345,33.6783626 41.4818713,39.3157895 C42.9263158,40.9766082 41.1017544,42.4736842 41.1017544,42.4736842 C41.1017544,42.4736842 44.7684211,40.5789474 43.0842105,38.2105263 C41.5111111,36 40.3064327,34.9005848 46.832751,31.1169591 Z M46.4760234,46.9356725 C46.4440654,46.9913927 46.4047229,47.0425379 46.3590643,47.0877193 C53.8619883,45.1169591 51.1017544,40.1345029 47.5169591,41.3976608 C47.3233468,41.468806 47.1560535,41.5973363 47.0374269,41.7660819 C47.2467597,41.6903184 47.461889,41.6316468 47.6807018,41.5906433 C49.4935673,41.2105263 52.0959064,44.0175439 46.4760234,46.9356725 L46.4760234,46.9356725 Z M49.2339181,50.5789474 C49.2339181,50.5789474 50.0818713,51.2748538 48.3040936,51.8187135 C44.9181287,52.8421053 34.2222222,53.1520468 31.251462,51.8596491 C30.1812865,51.3976608 32.1871345,50.748538 32.8187135,50.6140351 C33.4736842,50.4736842 33.8538012,50.497076 33.8538012,50.497076 C32.6666667,49.6608187 26.1754386,52.1403509 30.5555556,52.8479532 C42.4994152,54.7894737 52.3333333,51.9766082 49.2339181,50.5789474 Z M36.1602339,48.1578947 C31.5578947,49.4444444 38.9614035,52.0994152 44.8210526,49.5906433 C44.2495713,49.3686227 43.6978966,49.0986542 43.1719298,48.7836257 C40.5578947,49.2807018 39.3473684,49.3157895 36.9730994,49.0467836 C35.0140351,48.8245614 36.1602339,48.1578947 36.1602339,48.1578947 Z M46.6748538,53.8421053 C42.0725146,54.7076023 36.394152,54.6081871 33.0315789,54.0526316 C33.0315789,54.0467836 33.7216374,54.619883 37.2654971,54.8479532 C42.6573099,55.1929825 50.9380117,54.6549708 51.1309942,52.1052632 C51.1309942,52.1052632 50.7567251,53.0701754 46.6748538,53.8421053 L46.6748538,53.8421053 Z M44.1251462,45.6432749 C40.6631579,46.3099415 38.6573099,46.2923977 36.1251462,46.0292398 C34.1660819,45.8245614 35.4467836,44.877193 35.4467836,44.877193 C30.3707602,46.5614035 38.2654971,48.4678363 45.3590643,46.3918129 C44.9006025,46.2299289 44.4805203,45.9750924 44.1251462,45.6432749 L44.1251462,45.6432749 Z" id="Shape" fill="#FF595D" fill-rule="nonzero"></path>
    </g>
</svg>