<?xml version="1.0" encoding="UTF-8"?>
<svg width="80px" height="80px" viewBox="0 0 80 80" version="1.1" xmlns="http://www.w3.org/2000/svg" xmlns:xlink="http://www.w3.org/1999/xlink">
    <!-- Generator: Sketch 55.1 (78136) - https://sketchapp.com -->
    <title>php</title>
    <desc>Created with Sketch.</desc>
    <g id="php" stroke="none" stroke-width="1" fill="none" fill-rule="evenodd">
        <rect id="Rectangle" fill="#EAF0FF" x="0" y="0" width="80" height="80" rx="26"></rect>
        <path d="M40,30.9982175 C50.176875,30.9982175 58.0025,35.2881759 58.0025,40 C58.0025,44.7118241 50.1709375,49.0017825 40,49.0017825 C29.823125,49.0017825 21.9975,44.7118241 21.9975,40 C21.9975,35.2881759 29.8290625,30.9982175 40,30.9982175 L40,30.9982175 Z M40,30 C29.5084375,30 21,34.4741533 21,40 C21,45.5258467 29.5084375,50 40,50 C50.4915625,50 59,45.5258467 59,40 C59,34.4741533 50.4915625,30 40,30 Z M33.955625,39.197861 C33.4865625,41.6042781 31.83,41.3547237 29.7934375,41.3547237 L30.606875,37.1598336 C32.863125,37.1598336 34.395,36.916221 33.955625,39.197861 Z M26.783125,45.6030897 L28.9621875,45.6030897 L29.47875,42.9411765 C31.9190625,42.9411765 33.433125,43.1194296 34.834375,41.8062983 C36.3840625,40.3802733 36.7878125,37.8431373 35.6834375,36.5715983 C35.1075,35.90612 34.18125,35.5793226 32.9225,35.5793226 L28.7246875,35.5793226 L26.783125,45.6030897 Z M37.8090625,32.9114676 L39.97625,32.9114676 L39.4596875,35.5733809 C41.33,35.5733809 43.06375,35.4367201 43.9009375,36.2091503 C44.7796875,37.0172311 44.358125,38.0510992 43.408125,42.9292929 L41.21125,42.9292929 C42.125625,38.211527 42.2978125,37.8193702 41.9653125,37.4628639 C41.6446875,37.1182412 40.914375,37.1895425 39.1509375,37.1895425 L38.0346875,42.9292929 L35.8675,42.9292929 L37.8090625,32.9114676 L37.8090625,32.9114676 Z M50.984375,39.197861 C50.509375,41.6399287 48.8053125,41.3547237 46.8221875,41.3547237 L47.635625,37.1598336 C49.90375,37.1598336 51.42375,36.916221 50.984375,39.197861 L50.984375,39.197861 Z M43.811875,45.6030897 L45.996875,45.6030897 L46.5134375,42.9411765 C49.0784375,42.9411765 50.4975,43.0897207 51.8690625,41.8062983 C53.41875,40.3802733 53.8225,37.8431373 52.718125,36.5715983 C52.1421875,35.90612 51.2159375,35.5793226 49.9571875,35.5793226 L45.759375,35.5793226 L43.811875,45.6030897 L43.811875,45.6030897 Z" id="Shape" fill="#3067F1" fill-rule="nonzero"></path>
    </g>
</svg>